<svg width="215" height="152" viewBox="0 0 215 152" fill="none" xmlns="http://www.w3.org/2000/svg">
<path d="M72 147L62 98.5L41.5 75.5L4.5 84.5L28.5 23L47.5 9.5L57.5 23L83 4.5M83 4.5L92.5 53L119.5 81M83 4.5L206.5 56.5" stroke="#C2C2C2"/>
<circle cx="72.5" cy="146.5" r="5.5" fill="#C2C2C2"/>
<circle cx="62" cy="99" r="4" fill="#C2C2C2"/>
<circle cx="41" cy="75" r="4" fill="#C2C2C2"/>
<circle cx="5" cy="84" r="5" fill="#C2C2C2"/>
<circle cx="27" cy="23" r="5" fill="#C2C2C2"/>
<circle cx="47" cy="10" r="4" fill="#C2C2C2"/>
<circle opacity="0.1" cx="58" cy="23" r="4" fill="#C2C2C2"/>
<circle cx="84" cy="5" r="5" fill="#C2C2C2"/>
<circle cx="209.5" cy="58.5" r="5.5" fill="#C2C2C2"/>
<circle cx="121.5" cy="82.5" r="5.5" fill="#C2C2C2"/>
<circle cx="92" cy="53" r="4" fill="#C2C2C2"/>
<circle cx="58" cy="22" r="4" fill="#C2C2C2"/>
</svg>
