<svg width="620" height="387" viewBox="0 0 620 387" fill="none" xmlns="http://www.w3.org/2000/svg">
<path d="M611.5 183.5C611.5 231.433 577.872 274.923 523.296 306.457C468.734 337.984 393.323 357.5 310 357.5C226.677 357.5 151.266 337.984 96.7039 306.457C42.1283 274.923 8.5 231.433 8.5 183.5C8.5 135.567 42.1283 92.0773 96.7039 60.5428C151.266 29.0158 226.677 9.5 310 9.5C393.323 9.5 468.734 29.0158 523.296 60.5428C577.872 92.0773 611.5 135.567 611.5 183.5Z" stroke="#434343" stroke-opacity="0.533333"/>
<path d="M619.5 188.5C619.5 240.312 584.961 287.3 528.943 321.362C472.935 355.419 395.528 376.5 310 376.5C224.472 376.5 147.065 355.419 91.0567 321.362C35.0392 287.3 0.5 240.312 0.5 188.5C0.5 136.688 35.0392 89.6998 91.0567 55.6376C147.065 21.5808 224.472 0.5 310 0.5C395.528 0.5 472.935 21.5808 528.943 55.6376C584.961 89.6998 619.5 136.688 619.5 188.5Z" stroke="#888888" stroke-opacity="0.533333"/>
<path d="M75.9999 302C24.9997 264 7.79151 228.313 24.2891 146.567C40.7867 64.8208 160.087 30.5679 223.048 15.7599C286.01 0.952004 403.99 11.0477 462.005 32.9764C520.019 54.905 653.568 111.186 582.284 258.593C511 406 127 340 75.9999 302Z" stroke="white"/>
</svg>
