<svg width="604" height="379" viewBox="0 0 604 379" fill="none" xmlns="http://www.w3.org/2000/svg">
<path d="M603.5 175.5C603.5 223.433 569.872 266.923 515.296 298.457C460.734 329.984 385.323 349.5 302 349.5C218.677 349.5 143.266 329.984 88.7039 298.457C34.1283 266.923 0.5 223.433 0.5 175.5C0.5 127.567 34.1283 84.0773 88.7039 52.5428C143.266 21.0158 218.677 1.5 302 1.5C385.323 1.5 460.734 21.0158 515.296 52.5428C569.872 84.0773 603.5 127.567 603.5 175.5Z" stroke="#888888" stroke-opacity="0.533333"/>
<path d="M67.9999 294C16.9997 256 -0.208488 220.313 16.2891 138.567C32.7867 56.8208 152.087 22.5679 215.048 7.75995C278.01 -7.048 395.99 3.04774 454.005 24.9764C512.019 46.905 645.568 103.186 574.284 250.593C503 398 119 332 67.9999 294Z" stroke="white"/>
</svg>
