<svg width="651" height="330" viewBox="0 0 651 330" fill="none" xmlns="http://www.w3.org/2000/svg">
<path d="M650.333 165C650.333 210.276 614.128 251.396 555.295 281.227C496.49 311.043 415.216 329.5 325.417 329.5C235.617 329.5 154.344 311.043 95.5385 281.227C36.7053 251.396 0.5 210.276 0.5 165C0.5 119.724 36.7053 78.6042 95.5385 48.7733C154.344 18.9566 235.617 0.5 325.417 0.5C415.216 0.5 496.49 18.9566 555.295 48.7733C614.128 78.6042 650.333 119.724 650.333 165Z" stroke="#CDCDCD"/>
<path d="M641.5 162.5C641.5 204.032 606.259 241.781 548.937 269.176C491.653 296.553 412.479 313.5 325 313.5C237.521 313.5 158.347 296.553 101.063 269.176C43.7414 241.781 8.5 204.032 8.5 162.5C8.5 120.968 43.7414 83.2194 101.063 55.8245C158.347 28.4471 237.521 11.5 325 11.5C412.479 11.5 491.653 28.4471 548.937 55.8245C606.259 83.2194 641.5 120.968 641.5 162.5Z" stroke="#737373"/>
</svg>
