<svg width="126" height="171" viewBox="0 0 126 171" fill="none" xmlns="http://www.w3.org/2000/svg">
<path d="M93 108L88 79L90 43L89.759 38M93 108L121.5 148M93 108L94 144L78 158M88 1.5L89.759 38M89.759 38L117 33M89.759 38L66 33L43 36.5M43 36.5L35 20M43 36.5L4 56M43 36.5L44 68L41.5 100.5M41.5 100.5L7.5 118L12.5 167.5M41.5 100.5L38.5 124.5L43 155" stroke="#C2C2C2"/>
<circle cx="34.5" cy="19.5" r="4.5" fill="#C2C2C2"/>
<circle cx="117.5" cy="32.5" r="3.5" fill="#C2C2C2"/>
<circle cx="90" cy="39" r="4" fill="#C2C2C2"/>
<circle cx="66" cy="33" r="4" fill="#C2C2C2"/>
<circle cx="42.5" cy="36.5" r="3.5" fill="#C2C2C2"/>
<circle cx="5" cy="56" r="5" fill="#C2C2C2"/>
<circle cx="43.5" cy="67.5" r="3.5" fill="#C2C2C2"/>
<circle cx="41.5" cy="100.5" r="3.5" fill="#C2C2C2"/>
<circle cx="38.5" cy="124.5" r="3.5" fill="#C2C2C2"/>
<circle cx="43" cy="155" r="4" fill="#C2C2C2"/>
<circle cx="13" cy="167" r="4" fill="#C2C2C2"/>
<circle cx="7" cy="118" r="4" fill="#C2C2C2"/>
<circle cx="88" cy="82" r="4" fill="#C2C2C2"/>
<circle cx="93.5" cy="109.5" r="3.5" fill="#C2C2C2"/>
<circle cx="77" cy="159" r="4" fill="#C2C2C2"/>
<circle cx="93.5" cy="143.5" r="3.5" fill="#C2C2C2"/>
<circle cx="122" cy="149" r="4" fill="#C2C2C2"/>
<circle cx="87.5" cy="5.5" r="5.5" fill="#C2C2C2"/>
</svg>
