<svg width="220" height="177" viewBox="0 0 220 177" fill="none" xmlns="http://www.w3.org/2000/svg">
<path d="M216 160.5L201 173.5L179 167L175 146.5L185.5 137L201 126.5L214 140.5L216 160.5Z" stroke="#DFDFDF" stroke-opacity="0.87451"/>
<path d="M186 137.5L159.5 128.5L114.5 131L86 123L33 137.5L5.5 142.5L25.5 120.5L56 83.5L75.5 47.5L68.5 23.5L94 7" stroke="#C2C2C2" stroke-opacity="0.87451"/>
<circle cx="200.5" cy="173.5" r="3.5" fill="#C2C2C2"/>
<circle cx="216" cy="160" r="4" fill="#C2C2C2"/>
<circle cx="213.5" cy="139.5" r="3.5" fill="#C2C2C2"/>
<circle cx="200" cy="127" r="4" fill="#C2C2C2"/>
<circle cx="184" cy="137" r="5" fill="#C2C2C2"/>
<circle cx="159" cy="128" r="4" fill="#C2C2C2"/>
<circle cx="116.5" cy="132.5" r="4.5" fill="#C2C2C2"/>
<circle cx="86.5" cy="123.5" r="4.5" fill="#C2C2C2"/>
<circle cx="34" cy="138" r="4" fill="#C2C2C2"/>
<circle cx="6" cy="143" r="6" fill="#C2C2C2"/>
<circle cx="95" cy="6" r="6" fill="#C2C2C2"/>
<circle cx="68" cy="24" r="4" fill="#C2C2C2"/>
<circle cx="76" cy="48" r="4" fill="#C2C2C2"/>
<circle cx="56" cy="85" r="5" fill="#C2C2C2"/>
<circle cx="25" cy="120" r="4" fill="#C2C2C2"/>
<circle cx="174.5" cy="147.5" r="3.5" fill="#C2C2C2"/>
<circle cx="179" cy="167" r="4" fill="#C2C2C2"/>
</svg>
