<svg width="160" height="135" viewBox="0 0 160 135" fill="none" xmlns="http://www.w3.org/2000/svg">
<path d="M19.5 6L57 39.5L69 58.5V71H81L84 82.5M84 82.5L105 101L149.5 115.5L156 132M84 82.5L71.5 83.5L58 76.5L2 44.5" stroke="#C2C2C2"/>
<circle cx="57.5" cy="76.5" r="3.5" fill="#C2C2C2"/>
<circle cx="69.5" cy="70.5" r="3.5" fill="#C2C2C2"/>
<circle cx="68.5" cy="58.5" r="3.5" fill="#C2C2C2"/>
<circle cx="55.5" cy="38.5" r="3.5" fill="#C2C2C2"/>
<circle cx="18" cy="5" r="5" fill="#C2C2C2"/>
<circle cx="4" cy="45" r="4" fill="#C2C2C2"/>
<circle cx="71.5" cy="84.5" r="3.5" fill="#C2C2C2"/>
<circle cx="84.5" cy="83.5" r="3.5" fill="#C2C2C2"/>
<circle cx="105" cy="101" r="5" fill="#C2C2C2"/>
<circle cx="149" cy="116" r="4" fill="#C2C2C2"/>
<circle cx="156" cy="131" r="4" fill="#C2C2C2"/>
<circle cx="80.5" cy="71.5" r="3.5" fill="#C2C2C2"/>
</svg>
