<svg width="143" height="121" viewBox="0 0 143 121" fill="none" xmlns="http://www.w3.org/2000/svg">
<path d="M99 3L86.5 19L76 21M76 21L63 19M76 21L72.5 41.5L66 53M66 53H47.5M66 53L78.5 59.5L84 46L107.5 33L129.5 41.5L139 49.5L129.5 81.5L126 97M47.5 53L30 27.5M47.5 53L45.5 71.5M45.5 71.5L30 76L4 67M45.5 71.5L53 84L45.5 97M126 97L104.5 94.5M126 97L102 117.5" stroke="#C2C2C2"/>
<circle cx="99" cy="3" r="3" fill="#C2C2C2"/>
<circle cx="85" cy="19" r="3" fill="#C2C2C2"/>
<circle cx="76" cy="20" r="3" fill="#C2C2C2"/>
<circle cx="63" cy="19" r="3" fill="#C2C2C2"/>
<circle cx="72" cy="42" r="3" fill="#C2C2C2"/>
<circle cx="65" cy="53" r="3" fill="#C2C2C2"/>
<circle cx="78" cy="59" r="3" fill="#C2C2C2"/>
<circle cx="85" cy="46" r="3" fill="#C2C2C2"/>
<circle cx="107" cy="33" r="3" fill="#C2C2C2"/>
<circle cx="129.5" cy="41.5" r="2.5" fill="#C2C2C2"/>
<circle cx="139" cy="50" r="4" fill="#C2C2C2"/>
<circle cx="129" cy="81" r="3" fill="#C2C2C2"/>
<circle cx="125" cy="98" r="3" fill="#C2C2C2"/>
<circle cx="105" cy="94" r="3" fill="#C2C2C2"/>
<circle cx="102" cy="118" r="3" fill="#C2C2C2"/>
<circle cx="46" cy="97" r="3" fill="#C2C2C2"/>
<circle cx="53" cy="83" r="3" fill="#C2C2C2"/>
<circle cx="45" cy="71" r="3" fill="#C2C2C2"/>
<circle cx="47" cy="53" r="3" fill="#C2C2C2"/>
<circle cx="30" cy="28" r="4" fill="#C2C2C2"/>
<circle cx="4" cy="66" r="4" fill="#C2C2C2"/>
<circle cx="28" cy="76" r="3" fill="#C2C2C2"/>
</svg>
