<svg width="122" height="131" viewBox="0 0 122 131" fill="none" xmlns="http://www.w3.org/2000/svg">
<path d="M105.5 91L111 106L119.5 115.5L100 126.5L79 122L60.5 112.5V74L52 53L47 43L37.5 36M37.5 36H4.5M37.5 36L24.5 3.5M37.5 36L12 16" stroke="#C2C2C2"/>
<circle cx="24.5" cy="3.5" r="3.5" fill="#C2C2C2"/>
<circle cx="11.5" cy="15.5" r="5.5" fill="#C2C2C2"/>
<circle cx="37" cy="36" r="3" fill="#C2C2C2"/>
<circle cx="51" cy="52" r="3" fill="#C2C2C2"/>
<circle cx="60" cy="73" r="4" fill="#C2C2C2"/>
<circle cx="60.5" cy="112.5" r="3.5" fill="#C2C2C2"/>
<circle cx="77.5" cy="122.5" r="3.5" fill="#C2C2C2"/>
<circle cx="99" cy="127" r="4" fill="#C2C2C2"/>
<circle cx="119" cy="115" r="3" fill="#C2C2C2"/>
<circle cx="111" cy="107" r="3" fill="#C2C2C2"/>
<circle cx="105" cy="90" r="4" fill="#C2C2C2"/>
<circle cx="46" cy="42" r="4" fill="#C2C2C2"/>
<circle cx="3.5" cy="36.5" r="3.5" fill="#C2C2C2"/>
</svg>
