<svg width="155" height="201" viewBox="0 0 155 201" fill="none" xmlns="http://www.w3.org/2000/svg">
<path d="M150 168.5L117.5 130.5L104 121.5L90 113.5M90 113.5L31.5 141M90 113.5L71.5 60M31.5 141L65.5 178L74 173.5L78 171L96.5 196.5M31.5 141L39 107.5L35.5 65.5M71.5 60L107 41M71.5 60L35.5 65.5M35.5 65.5L19.5 48.5L6 5.5" stroke="#C2C2C2"/>
<circle cx="96.5" cy="195.5" r="5.5" fill="#C2C2C2"/>
<circle cx="149.5" cy="168.5" r="5.5" fill="#C2C2C2"/>
<circle cx="107.5" cy="40.5" r="5.5" fill="#C2C2C2"/>
<circle cx="5.5" cy="5.5" r="5.5" fill="#C2C2C2"/>
<circle cx="35" cy="66" r="4" fill="#C2C2C2"/>
<circle cx="72" cy="60" r="4" fill="#C2C2C2"/>
<circle cx="39" cy="108" r="4" fill="#C2C2C2"/>
<circle cx="90" cy="113" r="4" fill="#C2C2C2"/>
<circle cx="105" cy="122" r="4" fill="#C2C2C2"/>
<circle cx="118" cy="131" r="4" fill="#C2C2C2"/>
<circle cx="78" cy="171" r="4" fill="#C2C2C2"/>
<circle cx="68" cy="177" r="4" fill="#C2C2C2"/>
<circle cx="18" cy="48" r="4" fill="#C2C2C2"/>
<circle cx="30.5" cy="141.5" r="5.5" fill="#C2C2C2"/>
</svg>
